Coordinates
version=1
nRows=8
nColumns=46
inDegrees=yes

Units are S.I. units (second, meters, Newtons, ...)
Angles are in degrees.

endheader
time	pelvis_tilt	pelvis_list	pelvis_rotation	pelvis_tx	pelvis_ty	pelvis_tz	bb_angle	bb_tx	bb_ty	bb_tz	hip_flexion_r	hip_adduction_r	hip_rotation_r	knee_angle_r	knee_angle_r_beta	ankle_angle_r	subtalar_angle_r	mtp_angle_r	crank_angle_r	hip_flexion_l	hip_adduction_l	hip_rotation_l	knee_angle_l	knee_angle_l_beta	ankle_angle_l	subtalar_angle_l	mtp_angle_l	crank_angle_l	lumbar_extension	lumbar_bending	lumbar_rotation	arm_flex_r	arm_add_r	arm_rot_r	elbow_flex_r	pro_sup_r	wrist_flex_r	wrist_dev_r	arm_flex_l	arm_add_l	arm_rot_l	elbow_flex_l	pro_sup_l	wrist_flex_l	wrist_dev_l
      7.50000000	    -12.52879679	      4.53970018	      2.93306247	      0.11864321	      1.12801438	     -0.28136766	      0.00000000	      0.50000000	      0.00000000	      0.25000000	     52.18046638	    -13.21729827	     -1.37205006	     75.69595591	      1.32114366	     -1.79340594	     -5.40158912	      0.00000000	      0.00000000	     76.28091766	      0.02077259	      1.66290316	     81.38692849	      1.42046987	     16.39050158	     -1.96562732	      0.00000000	      0.00000000	    -67.24511831	      1.13278321	     -3.52889666	     88.44155853	    -32.81634614	     42.29083656	     85.13875276	     42.18435265	      0.00000000	      0.00000000	     86.23750236	    -33.14732805	     48.33809487	     71.42318218	     51.72428977	      0.00000000	      0.00000000
      7.50500000	    -12.14986455	      4.19811221	      2.93656290	      0.11931682	      1.12629535	     -0.28202084	      0.00000000	      0.50000000	      0.00000000	      0.25000000	     52.92958499	    -13.04528639	     -1.19483053	     78.38385985	      1.36805643	     -1.24310158	     -5.68284094	      0.00000000	      0.00000000	     74.50383172	     -0.00549943	      1.80127358	     79.14283702	      1.38130309	     16.86866225	     -2.06579557	      0.00000000	      0.00000000	    -67.33028632	      1.50430592	     -3.06606539	     88.32270595	    -32.92240665	     42.57577194	     85.19963800	     42.22567855	      0.00000000	      0.00000000	     85.86490867	    -33.08661091	     48.30830277	     71.44670132	     51.72351833	      0.00000000	      0.00000000
      7.51000000	    -11.56194692	      4.05648324	      3.05743243	      0.11990437	      1.12509928	     -0.28252711	      0.00000000	      0.50000000	      0.00000000	      0.25000000	     53.42996503	    -13.15048697	     -0.99883271	     80.97260221	      1.41323851	     -0.54021123	     -5.53206431	      0.00000000	      0.00000000	     72.52070895	      0.11872180	      1.86099357	     76.93224156	      1.34272092	     17.11498187	     -1.91414642	      0.00000000	      0.00000000	    -67.64496006	      1.81389490	     -2.81991358	     88.29961001	    -33.22684793	     43.05497487	     85.33304368	     42.30573913	      0.00000000	      0.00000000	     85.59782287	    -32.83310842	     48.00866911	     71.43854201	     51.68075013	      0.00000000	      0.00000000
      7.51500000	    -11.27944700	      3.57201510	      3.06511847	      0.12051244	      1.12346568	     -0.28282435	      0.00000000	      0.50000000	      0.00000000	      0.25000000	     54.15144407	    -12.79599663	     -0.94918885	     83.39605547	      1.45553575	      0.19716858	     -5.82682144	      0.00000000	      0.00000000	     70.97685272	     -0.09035612	      2.14221233	     74.86792962	      1.30669188	     17.17105774	     -1.82415646	      0.00000000	      0.00000000	    -67.64732463	      2.21363912	     -2.27730754	     88.23120504	    -33.19396709	     43.22139052	     85.36160173	     42.33007871	      0.00000000	      0.00000000	     85.23560047	    -32.83195700	     48.01884264	     71.46278963	     51.68839059	      0.00000000	      0.00000000
      7.52000000	    -10.92126955	      3.36695602	      2.99615241	      0.12121102	      1.12218627	     -0.28337893	      0.00000000	      0.50000000	      0.00000000	      0.25000000	     54.84757042	    -12.69182156	     -0.70492001	     85.78859105	      1.49729337	      1.14514146	     -5.59107109	      0.00000000	      0.00000000	     69.27466938	     -0.19668258	      2.21446149	     72.78520814	      1.27034153	     17.04148086	     -1.62653598	      0.00000000	      0.00000000	    -67.79492045	      2.41244115	     -1.89598589	     88.23488952	    -33.47251920	     43.63394314	     85.46874586	     42.40609875	      0.00000000	      0.00000000	     84.81718140	    -32.58070953	     47.61462470	     71.57224372	     51.66053760	      0.00000000	      0.00000000
      7.52500000	    -10.73115941	      2.79031156	      2.96718241	      0.12165231	      1.12049944	     -0.28369203	      0.00000000	      0.50000000	      0.00000000	      0.25000000	     55.67677811	    -12.23228687	     -0.71557233	     88.04881363	      1.53674170	      1.73798188	     -5.83898283	      0.00000000	      0.00000000	     67.90907732	     -0.51681127	      2.65968280	     70.88635764	      1.23720034	     16.74066728	     -1.31532839	      0.00000000	      0.00000000	    -67.75691899	      2.83748625	     -1.31116194	     88.17084320	    -33.38116956	     43.71205005	     85.47791714	     42.41709449	      0.00000000	      0.00000000	     84.57423239	    -32.65442168	     47.62278768	     71.59428081	     51.66865237	      0.00000000	      0.00000000
      7.53000000	    -10.34365136	      2.73182529	      3.01375029	      0.12201753	      1.11962175	     -0.28422089	      0.00000000	      0.50000000	      0.00000000	      0.25000000	     56.36499114	    -12.35210973	     -0.45807119	     90.32495933	      1.57646794	      2.92285609	     -5.43173789	      0.00000000	      0.00000000	     66.15287254	     -0.54929992	      2.64114424	     68.77007153	      1.20026418	     16.27402000	     -0.55765083	      0.00000000	      0.00000000	    -67.97618794	      2.97197533	     -1.12989943	     88.21560615	    -33.64555930	     43.81309048	     85.51082195	     42.45589207	      0.00000000	      0.00000000	     84.18617634	    -32.33017129	     47.23248204	     71.75519897	     51.64070279	      0.00000000	      0.00000000
      7.53500000	    -10.20501480	      2.26514860	      3.13798097	      0.12212925	      1.11825949	     -0.28422113	      0.00000000	      0.50000000	      0.00000000	      0.25000000	     57.25151604	    -12.05821610	     -0.53649293	     92.49524324	      1.61434654	      3.71068216	     -5.73033689	      0.00000000	      0.00000000	     64.83627573	     -0.83295951	      2.87397676	     66.82400555	      1.16629892	     15.60730370	     -0.18104635	      0.00000000	      0.00000000	    -67.92661965	      3.41991137	     -0.64818337	     88.14087105	    -33.54896095	     43.69769542	     85.53131997	     42.45915607	      0.00000000	      0.00000000	     83.88290182	    -32.29420829	     47.16414548	     71.83704368	     51.63584398	      0.00000000	      0.00000000
